<svg xmlns="http://www.w3.org/2000/svg" xmlns:xlink="http://www.w3.org/1999/xlink" version="1.1" width="256" height="256" viewBox="0 0 256 256" xml:space="preserve">
<desc>Created with Fabric.js 1.7.22</desc>
<defs>
</defs>
<g transform="translate(128 128) scale(0.72 0.72)" style="">
	<g style="stroke: none; stroke-width: 0; stroke-dasharray: none; stroke-linecap: butt; stroke-linejoin: miter; stroke-miterlimit: 10; fill: none; fill-rule: nonzero; opacity: 1;" transform="translate(-174.88500000000005 -174.88500000000005) scale(3.93 3.93)" >
	<path d="M 14.632 22.12 l -2.814 4.597 c -3.152 5.148 8.359 17.934 25.711 28.557 s 33.974 15.062 37.126 9.914 l 2.814 -4.597" style="stroke: none; stroke-width: 1; stroke-dasharray: none; stroke-linecap: butt; stroke-linejoin: miter; stroke-miterlimit: 10; fill: rgb(232,197,55); fill-rule: nonzero; opacity: 1;" transform=" matrix(1 0 0 1 0 0) " stroke-linecap="round" />
	<ellipse cx="46.05" cy="41.358999999999995" rx="10.93" ry="36.839" style="stroke: none; stroke-width: 1; stroke-dasharray: none; stroke-linecap: butt; stroke-linejoin: miter; stroke-miterlimit: 10; fill: rgb(247,211,62); fill-rule: nonzero; opacity: 1;" transform=" matrix(0.5221 -0.8529 0.8529 0.5221 -13.2651 59.036) "/>
	<path d="M 58.27 43.468 c -3.391 -2.076 -6.746 -3.476 -9.422 -4.061 c -0.696 -1.955 -4.076 -5.128 -8.646 -7.925 c -5.722 -3.503 -11.13 -5.087 -12.079 -3.537 c -0.949 1.55 2.921 5.646 8.643 9.15 c 2.39 1.463 4.72 2.586 6.699 3.291 c -1.073 2.388 3.165 7.412 9.704 11.416 l 10.718 -4.166 C 62.336 46.222 60.427 44.789 58.27 43.468 z" style="stroke: none; stroke-width: 1; stroke-dasharray: none; stroke-linecap: butt; stroke-linejoin: miter; stroke-miterlimit: 10; fill: rgb(232,197,55); fill-rule: nonzero; opacity: 1;" transform=" matrix(1 0 0 1 0 0) " stroke-linecap="round" />
	<path d="M 10.138 37.73 c -1.094 4.683 -1.698 9.414 -1.782 14.142 c -0.064 4.722 0.358 9.446 1.459 14.005 c 1.066 4.563 2.826 8.961 5.336 12.919 c 2.514 3.958 5.832 7.409 9.752 10.205 c -4.348 -2.074 -8.171 -5.352 -11.041 -9.325 c -2.902 -3.966 -4.846 -8.582 -5.991 -13.336 c -1.111 -4.77 -1.457 -9.695 -1.068 -14.542 C 7.184 46.955 8.253 42.161 10.138 37.73 z" style="stroke: none; stroke-width: 1; stroke-dasharray: none; stroke-linecap: butt; stroke-linejoin: miter; stroke-miterlimit: 10; fill: rgb(63,64,66); fill-rule: nonzero; opacity: 1;" transform=" matrix(1 0 0 1 0 0) " stroke-linecap="round" />
	<path d="M 78.862 51.27 c 1.094 -4.683 1.698 -9.414 1.782 -14.142 c 0.064 -4.722 -0.358 -9.446 -1.459 -14.005 c -1.066 -4.563 -2.826 -8.961 -5.336 -12.919 C 71.335 6.247 68.018 2.796 64.097 0 c 4.348 2.074 8.171 5.352 11.041 9.325 c 2.902 3.966 4.846 8.582 5.991 13.336 c 1.111 4.77 1.457 9.695 1.068 14.542 C 81.816 42.045 80.747 46.839 78.862 51.27 z" style="stroke: none; stroke-width: 1; stroke-dasharray: none; stroke-linecap: butt; stroke-linejoin: miter; stroke-miterlimit: 10; fill: rgb(87,89,93); fill-rule: nonzero; opacity: 1;" transform=" matrix(1 0 0 1 0 0) " stroke-linecap="round" />
</g>
</g>
</svg>